<?xml version="1.0" encoding="UTF-8"?>
<svg width="752pt" height="752pt" version="1.1" viewBox="0 0 752 752" xmlns="http://www.w3.org/2000/svg">
 <defs>
  <clipPath id="a">
   <path d="m139.21 242h473.58v268h-473.58z"/>
  </clipPath>
 </defs>
 <g clip-path="url(#a)">
  <path d="m334.92 360.28h82.16c5.9727-0.007813 10.812-4.8477 10.82-10.82v-48.266c-0.007813-5.9727-4.8477-10.812-10.82-10.82h-82.16c-5.9727 0.007812-10.812 4.8477-10.824 10.82v48.266c0.011719 5.9727 4.8516 10.812 10.824 10.82zm-5.3477-59.18c0-2.9492 2.3945-5.3438 5.3477-5.3438h82.16c2.9531 0 5.3438 2.3945 5.3438 5.3438v48.359c0 2.9531-2.3906 5.3438-5.3438 5.3438h-82.16c-2.9531 0-5.3477-2.3906-5.3477-5.3438zm113.05 88.141c-5.9102 0-11.574 2.3438-15.754 6.5234-4.1758 4.1758-6.5234 9.8438-6.5234 15.75 0 5.9102 2.3477 11.574 6.5234 15.754 4.1797 4.1758 9.8438 6.5234 15.754 6.5234 5.9062 0 11.574-2.3477 15.75-6.5234 4.1797-4.1797 6.5234-9.8438 6.5234-15.754-0.023438-5.8984-2.3789-11.551-6.5508-15.723-4.1719-4.1719-9.8242-6.5273-15.723-6.5508zm0 37.406v-0.003906c-3.9922 0-7.8242-1.5859-10.645-4.4102-2.8242-2.8203-4.4102-6.6523-4.4102-10.645 0-3.9922 1.5859-7.8203 4.4102-10.645 2.8203-2.8242 6.6523-4.4102 10.645-4.4102s7.8203 1.5859 10.645 4.4102c2.8242 2.8242 4.4102 6.6523 4.4102 10.645 0 3.9961-1.5859 7.8281-4.4102 10.652-2.8203 2.8281-6.6523 4.418-10.645 4.4219zm-133.25-37.406c-5.9102 0-11.574 2.3438-15.75 6.5234-4.1797 4.1758-6.5273 9.8438-6.5273 15.75 0 5.9102 2.3477 11.574 6.5273 15.754 4.1758 4.1758 9.8398 6.5234 15.75 6.5234 5.9062 0 11.574-2.3477 15.75-6.5234 4.1797-4.1797 6.5234-9.8438 6.5234-15.754-0.023438-5.8984-2.3789-11.551-6.5508-15.723-4.1719-4.1719-9.8242-6.5273-15.723-6.5508zm0 37.406v-0.003906c-3.9922 0-7.8242-1.5859-10.645-4.4102-2.8242-2.8203-4.4102-6.6523-4.4102-10.645 0-3.9922 1.5859-7.8203 4.4102-10.645 2.8203-2.8242 6.6523-4.4102 10.645-4.4102 3.9922 0 7.8203 1.5859 10.645 4.4102 2.8242 2.8242 4.4102 6.6523 4.4102 10.645 0 3.9961-1.5859 7.8281-4.4102 10.652-2.8203 2.8281-6.6523 4.418-10.645 4.4219zm-41.656-110.3h13.941v-13.941c0-2.3594 1.9102-4.2695 4.2695-4.2695h9.9141c2.3555 0 4.2695 1.9102 4.2695 4.2695v13.941h13.941-0.003906c2.3594 0 4.2695 1.9102 4.2695 4.2695v9.9141c0 2.3555-1.9102 4.2695-4.2695 4.2695h-13.938v13.961-0.003906c0 1.1328-0.45313 2.2148-1.2539 3.0117-0.80078 0.80078-1.8867 1.2461-3.0156 1.2383h-9.9883c-1.1289 0.007812-2.2188-0.4375-3.0195-1.2383-0.80078-0.79688-1.25-1.8789-1.25-3.0117v-13.957h-13.867c-2.3594 0-4.2695-1.9141-4.2695-4.2695v-9.9688c0.03125-2.3359 1.9336-4.2148 4.2695-4.2148zm183.35-8.5195c-0.007812-3.9219 2.3477-7.4609 5.9688-8.9648 3.6211-1.5078 7.793-0.68359 10.566 2.0859 2.7734 2.7695 3.6094 6.9414 2.1094 10.562-1.5 3.625-5.0352 5.9883-8.9531 5.9883-5.3438 0-9.6797-4.3281-9.6914-9.6719zm-17.82 17.746c0-3.9219 2.3633-7.457 5.9844-8.9531 3.625-1.5 7.793-0.66797 10.562 2.1055 2.7695 2.7773 3.5938 6.9492 2.0898 10.566-1.5039 3.6211-5.043 5.9766-8.9648 5.9688-5.3438-0.007812-9.6719-4.3438-9.6719-9.6875zm37.125 17.766c0 3.918-2.3594 7.4492-5.9805 8.9492-3.6211 1.5-7.7891 0.67188-10.559-2.0977-2.7734-2.7734-3.6016-6.9414-2.1016-10.562s5.0312-5.9805 8.9531-5.9805c5.3516 0 9.6875 4.3398 9.6875 9.6914zm-1.6133-17.766c0-3.9219 2.3594-7.4531 5.9805-8.9531 3.6211-1.5 7.7891-0.67188 10.562 2.1016 2.7695 2.7695 3.5977 6.9375 2.0977 10.559-1.5 3.6211-5.0312 5.9805-8.9531 5.9805-5.3516 0-9.6875-4.3359-9.6875-9.6875zm-329.55 52.086c-0.10156 49.309 22.332 95.961 60.906 126.68 5.5156 4.4062 12.734 6.0781 19.629 4.5508 6.8945-1.5273 12.727-6.0938 15.863-12.422 2.3203-4.8633 2.9141-10.371 1.6836-15.617-1.2266-5.2461-4.2031-9.918-8.4414-13.25-25.262-20.359-40.789-50.41-42.789-82.793s9.7188-64.113 32.281-87.43c3.793-3.8672 9.3438-5.457 14.609-4.1758l10.617 2.5234h0.003907c-0.058594 2.3711 0.078125 4.7422 0.40625 7.0938l18.414 121.7c3.25 21.402 23.109 37.555 46.242 37.555h134.73c23.109 0 42.992-16.148 46.242-37.555l18.414-121.64c0.32812-2.3477 0.46484-4.7188 0.40625-7.0898l10.617-2.5234v-0.003906c5.2617-1.2812 10.809 0.30859 14.594 4.1797 22.57 23.309 34.293 55.039 32.301 87.422-1.9961 32.387-17.527 62.438-42.789 82.801-4.2383 3.3281-7.2148 8-8.4453 13.246-1.2266 5.2461-0.63281 10.754 1.6875 15.617 3.1484 6.3203 8.9844 10.871 15.879 12.391 6.8906 1.5195 14.102-0.16406 19.613-4.5742 39.355-31.465 61.852-79.434 60.867-129.81-0.98047-50.379-25.328-97.438-65.879-127.34-5.5078-4.0859-12.539-5.5312-19.215-3.9531l-50.957 12.066h0.003906c-4.8086-1.5117-9.8125-2.2852-14.852-2.3008h-171.63c-5.0391 0.011719-10.047 0.78906-14.852 2.3008l-51.031-12.066c-6.6758-1.582-13.711-0.14062-19.23 3.9375-41.355 30.641-65.789 79.027-65.898 130.5zm322.57-113.73c10.742-0.125 21.008 4.4453 28.105 12.512 5.9805 6.75 8.6602 15.809 7.3125 24.727l-18.414 121.64c-2.4336 16.094-17.652 28.254-35.418 28.254l-134.73-0.003907c-17.766 0-32.988-12.16-35.418-28.254l-18.414-121.64c-1.3477-8.918 1.3281-17.977 7.3125-24.727 7.0977-8.0664 17.359-12.637 28.105-12.512z" fill="#ff001b"/>
 </g>
</svg>
